<svg width="34" height="33" viewBox="0 0 34 33" fill="none" xmlns="http://www.w3.org/2000/svg">
    <rect x="1.125" y="1" width="31" height="31" rx="15.5" fill="#9747FF"/>
    <path d="M16.6252 19.722C17.3575 19.722 17.9801 19.4658 18.4929 18.9534C19.0053 18.4405 19.2616 17.818 19.2616 17.0856C19.2616 16.3533 19.0053 15.7307 18.4929 15.2179C17.9801 14.7055 17.3575 14.4493 16.6252 14.4493C15.8929 14.4493 15.2703 14.7055 14.7575 15.2179C14.245 15.7307 13.9888 16.3533 13.9888 17.0856C13.9888 17.818 14.245 18.4405 14.7575 18.9534C15.2703 19.4658 15.8929 19.722 16.6252 19.722ZM11.9383 21.7725C11.6161 21.7725 11.3404 21.6579 11.1111 21.4286C10.8814 21.1989 10.7666 20.923 10.7666 20.6008V13.5705C10.7666 13.2483 10.8814 12.9725 11.1111 12.7433C11.3404 12.5136 11.6161 12.3988 11.9383 12.3988H13.7838L14.8676 11.2271H18.3828L19.4666 12.3988H21.3121C21.6343 12.3988 21.9102 12.5136 22.1399 12.7433C22.3691 12.9725 22.4838 13.2483 22.4838 13.5705V20.6008C22.4838 20.923 22.3691 21.1989 22.1399 21.4286C21.9102 21.6579 21.6343 21.7725 21.3121 21.7725H11.9383Z" fill="white"/>
    <rect x="1.125" y="1" width="31" height="31" rx="15.5" stroke="white" stroke-width="2"/>
</svg>
