<svg width="20" height="20" viewBox="0 0 20 20" fill="none" xmlns="http://www.w3.org/2000/svg">
    <path d="M17.4252 9.26711V5.60878C17.4252 4.92545 16.9085 4.15045 16.2669 3.89211L11.6252 1.99211C10.5807 1.56708 9.41139 1.56708 8.36686 1.99211L3.7252 3.89211C3.09186 4.15045 2.5752 4.92545 2.5752 5.60878V9.26711C2.5752 13.3421 5.53353 17.1588 9.57519 18.2754C9.85019 18.3504 10.1502 18.3504 10.4252 18.2754C14.4669 17.1588 17.4252 13.3421 17.4252 9.26711ZM10.6252 10.7254V12.9171C10.6252 13.2588 10.3419 13.5421 10.0002 13.5421C9.65853 13.5421 9.3752 13.2588 9.3752 12.9171V10.7254C8.95409 10.5934 8.58587 10.331 8.32372 9.97594C8.06158 9.62092 7.9191 9.19175 7.91686 8.75045C7.91686 8.19791 8.13635 7.66801 8.52706 7.27731C8.91776 6.88661 9.44766 6.66711 10.0002 6.66711C10.5527 6.66711 11.0826 6.88661 11.4733 7.27731C11.864 7.66801 12.0835 8.19791 12.0835 8.75045C12.0835 9.68378 11.4669 10.4588 10.6252 10.7254Z" fill="#808080"/>
</svg>
