<svg width="20" height="20" viewBox="0 0 20 20" fill="none" xmlns="http://www.w3.org/2000/svg">
    <path d="M18.3332 8.12484C17.9915 8.12484 17.7082 7.8415 17.7082 7.49984V5.83317C17.7082 3.68317 16.3165 2.2915 14.1665 2.2915H12.4998C12.1582 2.2915 11.8748 2.00817 11.8748 1.6665C11.8748 1.32484 12.1582 1.0415 12.4998 1.0415H14.1665C17.0332 1.0415 18.9582 2.9665 18.9582 5.83317V7.49984C18.9582 7.8415 18.6748 8.12484 18.3332 8.12484ZM1.6665 8.12484C1.32484 8.12484 1.0415 7.8415 1.0415 7.49984V5.83317C1.0415 2.9665 2.9665 1.0415 5.83317 1.0415H7.49984C7.8415 1.0415 8.12484 1.32484 8.12484 1.6665C8.12484 2.00817 7.8415 2.2915 7.49984 2.2915H5.83317C3.68317 2.2915 2.2915 3.68317 2.2915 5.83317V7.49984C2.2915 7.8415 2.00817 8.12484 1.6665 8.12484ZM14.1665 18.9582H12.4998C12.1582 18.9582 11.8748 18.6748 11.8748 18.3332C11.8748 17.9915 12.1582 17.7082 12.4998 17.7082H14.1665C16.3165 17.7082 17.7082 16.3165 17.7082 14.1665V12.4998C17.7082 12.1582 17.9915 11.8748 18.3332 11.8748C18.6748 11.8748 18.9582 12.1582 18.9582 12.4998V14.1665C18.9582 17.0332 17.0332 18.9582 14.1665 18.9582ZM7.49984 18.9582H5.83317C2.9665 18.9582 1.0415 17.0332 1.0415 14.1665V12.4998C1.0415 12.1582 1.32484 11.8748 1.6665 11.8748C2.00817 11.8748 2.2915 12.1582 2.2915 12.4998V14.1665C2.2915 16.3165 3.68317 17.7082 5.83317 17.7082H7.49984C7.8415 17.7082 8.12484 17.9915 8.12484 18.3332C8.12484 18.6748 7.8415 18.9582 7.49984 18.9582ZM10.0015 8.22567C9.59317 8.22567 9.2515 8.559 9.2515 8.97567V11.034C9.2515 11.4507 9.58484 11.784 10.0015 11.784C10.4182 11.784 10.7515 11.4507 10.7515 11.034V8.97567C10.7515 8.559 10.4098 8.22567 10.0015 8.22567Z" fill="#808080"/>
    <path d="M12.9433 6.16641C12.6599 5.88307 12.3349 5.64141 11.9849 5.44141C11.8683 5.38307 11.7433 5.32474 11.6183 5.26641C11.4933 5.21641 11.3683 5.16641 11.2349 5.13307C11.1016 5.09141 10.9683 5.05807 10.8349 5.02474C10.8266 5.02474 10.8099 5.02474 10.8016 5.01641C10.5433 4.96641 10.2766 4.94141 10.0099 4.94141H9.99326C9.72659 4.94141 9.46826 4.96641 9.20993 5.01641C9.17659 5.02474 9.14326 5.02474 9.11826 5.04141C9.0016 5.06641 8.88493 5.09141 8.76826 5.13307C8.6266 5.16641 8.48493 5.22474 8.34326 5.28307C8.23493 5.33307 8.12659 5.39141 8.02659 5.44141C7.90159 5.50807 7.79326 5.58307 7.67659 5.65807C7.45993 5.80807 7.2516 5.97474 7.05993 6.16641C6.96826 6.25807 6.8766 6.35807 6.79326 6.45807C6.70993 6.56641 6.62659 6.66641 6.55159 6.78307C6.47659 6.89141 6.40993 7.00807 6.34326 7.12474C6.02659 7.71641 5.84326 8.39141 5.84326 9.10807V10.8914C5.84326 12.3331 6.57659 13.5997 7.67659 14.3414C7.77659 14.4164 7.88493 14.4747 7.99326 14.5414L8.4516 14.7581C8.68493 14.8497 8.92659 14.9247 9.16826 14.9747C9.43493 15.0247 9.70993 15.0581 9.99326 15.0581H10.0099C10.2933 15.0581 10.5683 15.0247 10.8349 14.9747C11.0849 14.9247 11.3266 14.8497 11.5599 14.7581C12.329 14.4456 12.9873 13.9107 13.4505 13.2219C13.9137 12.533 14.1607 11.7215 14.1599 10.8914V9.10807C14.1599 7.95807 13.6933 6.91641 12.9433 6.16641ZM12.0016 11.0331C12.0016 12.1331 11.1016 13.0331 10.0016 13.0331C8.90159 13.0331 8.0016 12.1331 8.0016 11.0331V8.97474C8.0016 7.87474 8.90159 6.97474 10.0016 6.97474C11.1016 6.97474 12.0016 7.87474 12.0016 8.97474V11.0331Z" fill="#808080"/>
</svg>
