<svg width="20" height="20" viewBox="0 0 20 20" fill="none" xmlns="http://www.w3.org/2000/svg">
    <path d="M10.375 6.4585C8.8 6.4585 8.5 7.11683 8.5 8.3335V8.85016H12.25V8.3335C12.25 7.11683 11.95 6.4585 10.375 6.4585ZM10.3733 12.5818C10.6164 12.5818 10.8496 12.4853 11.0215 12.3133C11.1934 12.1414 11.29 11.9083 11.29 11.6652C11.29 11.422 11.1934 11.1889 11.0215 11.017C10.8496 10.8451 10.6164 10.7485 10.3733 10.7485C10.1302 10.7485 9.89706 10.8451 9.72515 11.017C9.55324 11.1889 9.45667 11.422 9.45667 11.6652C9.45667 11.9083 9.55324 12.1414 9.72515 12.3133C9.89706 12.4853 10.1302 12.5818 10.3733 12.5818Z" fill="#808080"/>
    <path d="M10.3333 2C5.73333 2 2 5.73333 2 10.3333C2 14.9333 5.73333 18.6667 10.3333 18.6667C14.9333 18.6667 18.6667 14.9333 18.6667 10.3333C18.6667 5.73333 14.9333 2 10.3333 2ZM14.8167 12.4167C14.8167 14.25 14.25 14.8167 12.4167 14.8167H8.25C6.41667 14.8167 5.85 14.25 5.85 12.4167V11.5833C5.85 10.1583 6.19167 9.5 7.20833 9.275V8.66667C7.20833 7.89167 7.20833 5.54167 10.3333 5.54167C13.4583 5.54167 13.4583 7.89167 13.4583 8.66667V9.275C14.475 9.5 14.8167 10.1583 14.8167 11.5833V12.4167Z" fill="#808080"/>
</svg>
