<svg width="20" height="20" viewBox="0 0 20 20" fill="none" xmlns="http://www.w3.org/2000/svg">
    <path d="M17.9667 8.94899L16.8334 7.63232C16.6167 7.38232 16.4417 6.91566 16.4417 6.58232V5.16566C16.4417 4.28232 15.7167 3.55732 14.8334 3.55732H13.4167C13.0917 3.55732 12.6167 3.38232 12.3667 3.16566L11.0501 2.03232C10.4751 1.54066 9.5334 1.54066 8.95007 2.03232L7.64173 3.17399C7.39173 3.38232 6.91673 3.55732 6.59173 3.55732H5.15006C4.26673 3.55732 3.54173 4.28232 3.54173 5.16566V6.59066C3.54173 6.91566 3.36673 7.38232 3.1584 7.63232L2.0334 8.95732C1.55007 9.53232 1.55007 10.4657 2.0334 11.0407L3.1584 12.3657C3.36673 12.6157 3.54173 13.0823 3.54173 13.4073V14.8323C3.54173 15.7157 4.26673 16.4407 5.15006 16.4407H6.59173C6.91673 16.4407 7.39173 16.6157 7.64173 16.8323L8.9584 17.9657C9.5334 18.4573 10.4751 18.4573 11.0584 17.9657L12.3751 16.8323C12.6251 16.6157 13.0917 16.4407 13.4251 16.4407H14.8417C15.7251 16.4407 16.4501 15.7157 16.4501 14.8323V13.4157C16.4501 13.0907 16.6251 12.6157 16.8417 12.3657L17.9751 11.049C18.4584 10.474 18.4584 9.52399 17.9667 8.94899ZM13.4667 8.42399L9.44173 12.449C9.32454 12.566 9.16569 12.6318 9.00007 12.6318C8.83444 12.6318 8.67559 12.566 8.5584 12.449L6.54173 10.4323C6.4255 10.3147 6.36031 10.156 6.36031 9.99066C6.36031 9.8253 6.4255 9.66661 6.54173 9.54899C6.7834 9.30732 7.1834 9.30732 7.42507 9.54899L9.00007 11.124L12.5834 7.54066C12.8251 7.29899 13.2251 7.29899 13.4667 7.54066C13.7084 7.78232 13.7084 8.18232 13.4667 8.42399Z" fill="#808080"/>
</svg>
