<svg width="20" height="20" viewBox="0 0 20 20" fill="none" xmlns="http://www.w3.org/2000/svg">
    <path d="M13.4915 1.6665H6.50817C3.47484 1.6665 1.6665 3.47484 1.6665 6.50817V13.4832C1.6665 16.5248 3.47484 18.3332 6.50817 18.3332H13.4832C16.5165 18.3332 18.3248 16.5248 18.3248 13.4915V6.50817C18.3332 3.47484 16.5248 1.6665 13.4915 1.6665ZM6.3915 4.58317C6.3915 4.2415 6.67484 3.95817 7.0165 3.95817C7.35817 3.95817 7.6415 4.2415 7.6415 4.58317V7.83317C7.6415 8.17484 7.35817 8.45817 7.0165 8.45817C6.67484 8.45817 6.3915 8.17484 6.3915 7.83317V4.58317ZM7.93567 13.6923C7.85123 13.7266 7.77851 13.7845 7.72631 13.8592C7.6741 13.9339 7.64465 14.0221 7.6415 14.1132V15.4165C7.6415 15.7582 7.35817 16.0415 7.0165 16.0415C6.67484 16.0415 6.3915 15.7582 6.3915 15.4165V14.1132C6.38826 14.0221 6.35876 13.934 6.30657 13.8593C6.25438 13.7846 6.18172 13.7267 6.09734 13.6923C5.69655 13.5153 5.35583 13.2257 5.11661 12.8587C4.87738 12.4916 4.74996 12.063 4.74984 11.6248C4.74984 10.3748 5.7665 9.34984 7.0165 9.34984C8.2665 9.34984 9.2915 10.3665 9.2915 11.6248C9.2915 12.5482 8.73317 13.339 7.93567 13.6923ZM13.6082 15.4165C13.6082 15.7582 13.3248 16.0415 12.9832 16.0415C12.6415 16.0415 12.3582 15.7582 12.3582 15.4165V12.1665C12.3582 11.8248 12.6415 11.5415 12.9832 11.5415C13.3248 11.5415 13.6082 11.8248 13.6082 12.1665V15.4165ZM12.9832 10.6415C11.7332 10.6415 10.7082 9.62484 10.7082 8.3665C10.7082 7.44317 11.2665 6.65234 12.064 6.299C12.1484 6.26477 12.2212 6.20681 12.2734 6.13212C12.3256 6.05744 12.355 5.96924 12.3582 5.87817V4.58317C12.3582 4.2415 12.6415 3.95817 12.9832 3.95817C13.3248 3.95817 13.6082 4.2415 13.6082 4.58317V5.8865C13.6082 6.07234 13.7332 6.2315 13.9023 6.30734C14.3031 6.48433 14.6438 6.77396 14.8831 7.14101C15.1223 7.50806 15.2497 7.93671 15.2498 8.37484C15.2498 9.62484 14.2332 10.6415 12.9832 10.6415Z" fill="#808080"/>
</svg>
