<svg width="20" height="20" viewBox="0 0 20 20" fill="none" xmlns="http://www.w3.org/2000/svg">
    <path d="M2.29152 15.5423C1.94985 15.5423 1.66652 15.259 1.66652 14.9173V10.1673C1.62485 7.90898 2.46652 5.77565 4.03318 4.17565C5.59985 2.58398 7.69985 1.70898 9.95818 1.70898C14.5748 1.70898 18.3332 5.46732 18.3332 10.084V14.834C18.3332 15.1757 18.0499 15.459 17.7082 15.459C17.3665 15.459 17.0832 15.1757 17.0832 14.834V10.084C17.0832 6.15898 13.8915 2.95898 9.95818 2.95898C8.03318 2.95898 6.24985 3.70065 4.92485 5.05065C3.59152 6.40898 2.88318 8.21732 2.91652 10.1507V14.909C2.91652 15.259 2.64152 15.5423 2.29152 15.5423Z" fill="#808080"/>
    <path d="M4.94984 10.3745H4.8415C3.0915 10.3745 1.6665 11.7995 1.6665 13.5495V15.1162C1.6665 16.8662 3.0915 18.2912 4.8415 18.2912H4.94984C6.69984 18.2912 8.12484 16.8662 8.12484 15.1162V13.5495C8.12484 11.7995 6.69984 10.3745 4.94984 10.3745ZM15.1582 10.3745H15.0498C13.2998 10.3745 11.8748 11.7995 11.8748 13.5495V15.1162C11.8748 16.8662 13.2998 18.2912 15.0498 18.2912H15.1582C16.9082 18.2912 18.3332 16.8662 18.3332 15.1162V13.5495C18.3332 11.7995 16.9082 10.3745 15.1582 10.3745Z" fill="#808080"/>
</svg>
